<?xml version="1.0" encoding="utf-8" standalone="no"?>
<!DOCTYPE svg PUBLIC "-//W3C//DTD SVG 1.1//EN"
  "http://www.w3.org/Graphics/SVG/1.1/DTD/svg11.dtd">
<!-- Created with matplotlib (http://matplotlib.org/) -->
<svg height="216pt" version="1.1" viewBox="0 0 576 216" width="576pt" xmlns="http://www.w3.org/2000/svg" xmlns:xlink="http://www.w3.org/1999/xlink">
 <defs>
  <style type="text/css">
*{stroke-linecap:butt;stroke-linejoin:round;stroke-miterlimit:100000;}
  </style>
 </defs>
 <g id="figure_1">
  <g id="patch_1">
   <path d="M 0 216 
L 576 216 
L 576 0 
L 0 0 
z
" style="fill:none;"/>
  </g>
  <g id="axes_1">
   <g id="patch_2">
    <path d="M 62.91 170.64 
L 555.39 170.64 
L 555.39 12.96 
L 62.91 12.96 
z
" style="fill:none;"/>
   </g>
   <g id="line2d_1">
    <path clip-path="url(#p396c9a1b20)" d="M 62.91 91.8 
L 66.511485 91.692802 
L 67.896672 91.392672 
L 70.667045 90.667671 
L 71.313465 90.821506 
L 71.898322 91.193293 
L 72.544742 91.907371 
L 73.221944 93.003393 
L 74.26853 95.254952 
L 76.053881 99.26514 
L 76.792648 100.421363 
L 77.346722 100.898531 
L 77.746887 100.983099 
L 78.11627 100.831398 
L 78.516435 100.405239 
L 78.978164 99.551099 
L 79.532239 97.994888 
L 80.209441 95.334542 
L 81.102117 90.720927 
L 82.302612 83.352043 
L 83.564671 76.009496 
L 84.334219 72.818712 
L 84.82673 71.629684 
L 85.165331 71.268021 
L 85.411586 71.275303 
L 85.657842 71.502632 
L 85.965661 72.137248 
L 86.365826 73.528915 
L 86.889119 76.331103 
L 87.535539 81.251924 
L 88.428215 90.211013 
L 91.167806 120.056676 
L 91.691099 123.284366 
L 92.091264 124.700143 
L 92.368301 125.085002 
L 92.552993 125.05168 
L 92.768466 124.70784 
L 93.076285 123.656376 
L 93.47645 121.263218 
L 93.999743 116.459875 
L 94.676945 107.680962 
L 95.661967 91.0866 
L 97.78592 55.141921 
L 98.339994 49.481753 
L 98.770941 46.960979 
L 99.047979 46.315036 
L 99.201888 46.299584 
L 99.355798 46.542342 
L 99.602053 47.45694 
L 99.940654 49.792329 
L 100.402383 54.932522 
L 101.018022 65.00896 
L 101.879916 83.919351 
L 104.311688 139.016669 
L 104.83498 145.185092 
L 105.204363 147.395456 
L 105.419837 147.790272 
L 105.542965 147.714799 
L 105.727656 147.17895 
L 105.973911 145.672458 
L 106.312513 142.170672 
L 106.805023 134.191414 
L 107.359098 121.641769 
L 108.128646 99.663249 
L 110.191035 40.730565 
L 110.775892 31.43113 
L 111.145275 28.444252 
L 111.39153 27.818695 
L 111.514658 27.9341 
L 111.699349 28.617547 
L 111.976387 30.85412 
L 112.314988 35.478419 
L 112.807499 45.716303 
L 113.392355 62.372613 
L 114.59285 105.082005 
L 115.762563 142.946071 
L 116.316638 154.668903 
L 116.716803 159.51897 
L 116.99384 160.876911 
L 117.116968 160.940688 
L 117.14775 160.909976 
L 117.301659 160.43441 
L 117.547915 158.555183 
L 117.886516 153.823704 
L 118.317463 144.433583 
L 118.933101 125.494066 
L 120.072033 80.834083 
L 121.087836 43.49593 
L 121.672693 28.596751 
L 122.134422 21.945226 
L 122.411459 20.376011 
L 122.503805 20.287076 
L 122.534587 20.306544 
L 122.657714 20.611336 
L 122.842406 21.743837 
L 123.119443 25.052045 
L 123.55039 33.737658 
L 124.104465 50.508573 
L 124.99714 86.231352 
L 126.474673 144.058969 
L 126.997965 156.834146 
L 127.398131 162.215948 
L 127.644386 163.440239 
L 127.736732 163.49589 
L 127.767514 163.46059 
L 127.890641 163.056354 
L 128.106115 161.329186 
L 128.444716 156.20553 
L 128.844881 146.464658 
L 129.368174 128.785001 
L 130.199286 93.436167 
L 131.368999 44.851272 
L 131.984637 27.762787 
L 132.384802 21.708568 
L 132.661839 20.129387 
L 132.754185 20.095181 
L 132.784967 20.140362 
L 132.938877 20.803906 
L 133.185132 23.289872 
L 133.523733 29.449592 
L 133.95468 41.522966 
L 134.631883 67.933311 
L 136.540362 148.28869 
L 137.063655 159.900343 
L 137.402256 163.139449 
L 137.556165 163.515029 
L 137.586947 163.497941 
L 137.710075 163.121661 
L 137.925548 161.258373 
L 138.233368 156.217492 
L 138.633533 145.624069 
L 139.249171 122.194253 
L 141.434688 30.000355 
L 141.865635 22.120959 
L 142.142672 20.159966 
L 142.235018 20.102854 
L 142.2658 20.148018 
L 142.419709 20.795409 
L 142.635183 22.998524 
L 142.973784 29.601083 
L 143.435513 43.838239 
L 144.174279 76.033433 
L 145.651811 143.679339 
L 146.144322 157.385831 
L 146.513705 162.635726 
L 146.729179 163.506331 
L 146.821524 163.403589 
L 146.975434 162.525764 
L 147.221689 159.299789 
L 147.560291 151.700562 
L 148.052801 134.487337 
L 148.853131 96.518321 
L 150.145972 37.275447 
L 150.669265 23.896034 
L 150.977084 20.514917 
L 151.130994 20.061364 
L 151.161776 20.082844 
L 151.284903 20.542719 
L 151.500377 22.784606 
L 151.838978 29.594231 
L 152.239143 42.600371 
L 152.793218 67.231965 
L 154.701697 154.371271 
L 155.101862 161.926326 
L 155.348117 163.483032 
L 155.409681 163.524624 
L 155.440463 163.486765 
L 155.563591 162.930966 
L 155.748282 160.92231 
L 156.056102 154.72341 
L 156.487049 140.420581 
L 157.041123 114.95604 
L 158.672565 35.176113 
L 159.103512 23.972695 
L 159.411331 20.393505 
L 159.534459 20.112534 
L 159.565241 20.14313 
L 159.657587 20.385905 
L 159.842278 21.987766 
L 160.119316 27.1249 
L 160.550263 40.735281 
L 161.104337 66.300172 
L 162.951253 154.919487 
L 163.351418 162.317289 
L 163.566891 163.56508 
L 163.628455 163.523009 
L 163.751583 162.913754 
L 163.967056 160.294595 
L 164.274875 153.222689 
L 164.736604 135.926818 
L 165.47537 97.230521 
L 166.675865 36.399177 
L 167.106812 24.226505 
L 167.414632 20.382189 
L 167.537759 20.112261 
L 167.568541 20.156113 
L 167.660887 20.452827 
L 167.845578 22.275282 
L 168.122616 28.005524 
L 168.553563 43.006573 
L 169.107637 70.73293 
L 170.708297 152.461094 
L 171.108462 161.59465 
L 171.354718 163.485671 
L 171.416282 163.536679 
L 171.447064 163.490883 
L 171.570191 162.816536 
L 171.754883 160.381133 
L 172.093484 151.91225 
L 172.493649 135.834213 
L 173.109287 102.557808 
L 174.371346 35.559497 
L 174.802293 23.40702 
L 175.110113 20.13087 
L 175.171676 20.027059 
L 175.202458 20.049274 
L 175.294804 20.421304 
L 175.479496 22.528032 
L 175.756533 28.674643 
L 176.156698 43.622065 
L 176.8339 80.16122 
L 177.972831 143.577972 
L 178.43456 158.747134 
L 178.74238 163.132447 
L 178.865507 163.57664 
L 178.896289 163.556673 
L 178.988635 163.17888 
L 179.173326 161.00405 
L 179.450364 154.631698 
L 179.850529 139.141331 
L 180.527731 101.48463 
L 181.605098 40.291841 
L 182.066827 24.78268 
L 182.374647 20.448311 
L 182.497774 20.047095 
L 182.528556 20.081289 
L 182.651684 20.771464 
L 182.836375 23.41664 
L 183.144195 31.688148 
L 183.575142 50.564204 
L 184.221562 88.725246 
L 185.175802 143.470852 
L 185.668312 159.728821 
L 185.94535 163.281246 
L 186.037695 163.472048 
L 186.068477 163.463897 
L 186.160823 163.106243 
L 186.314733 161.414512 
L 186.560988 155.83538 
L 186.961153 140.437293 
L 187.576792 105.421481 
L 188.838851 33.46265 
L 189.239016 22.44381 
L 189.485271 20.052504 
L 189.546835 20.041465 
L 189.639181 20.465267 
L 189.823872 22.723952 
L 190.100909 29.705325 
L 190.470293 45.163263 
L 191.024367 77.459805 
L 192.163298 145.447193 
L 192.594245 159.786771 
L 192.871283 163.330516 
L 192.963628 163.552452 
L 192.99441 163.507296 
L 193.117538 162.709568 
L 193.30223 159.72363 
L 193.610049 150.459563 
L 194.071778 127.873397 
L 195.918693 24.957048 
L 196.226512 20.230886 
L 196.318858 20.023155 
L 196.34964 20.07817 
L 196.472768 20.930042 
L 196.688241 24.501453 
L 196.965278 33.222293 
L 197.427007 56.261446 
L 199.212359 158.189473 
L 199.489396 162.97243 
L 199.643306 163.493105 
L 199.735652 163.119956 
L 199.889561 161.21523 
L 200.135817 154.946547 
L 200.535982 137.614133 
L 201.213184 94.646733 
L 202.10586 39.186765 
L 202.536807 23.882086 
L 202.813844 20.161556 
L 202.875408 20.011475 
L 202.936972 20.127696 
L 203.060099 21.175833 
L 203.275573 25.518545 
L 203.614174 37.827175 
L 204.137467 68.011249 
L 205.584217 155.174348 
L 205.922818 162.733731 
L 206.076728 163.603306 
L 206.10751 163.568267 
L 206.199856 163.056345 
L 206.384547 160.224461 
L 206.661584 151.98211 
L 207.092531 130.235418 
L 207.800516 81.913598 
L 208.539282 36.626428 
L 208.970229 22.508518 
L 209.216484 20.017336 
L 209.278048 20.10417 
L 209.401176 21.116508 
L 209.647431 26.143714 
L 209.986032 39.62144 
L 210.540107 73.645912 
L 211.679038 147.911654 
L 212.079203 161.045237 
L 212.325458 163.573179 
L 212.387022 163.476247 
L 212.51015 162.423714 
L 212.725623 158.161824 
L 213.033443 146.425309 
L 213.556735 115.095874 
L 214.818794 32.750337 
L 215.188177 21.79831 
L 215.403651 20.017533 
L 215.465215 20.181826 
L 215.619124 21.854125 
L 215.834598 26.95592 
L 216.173199 41.5759 
L 216.758056 79.69779 
L 217.743077 146.053655 
L 218.143242 160.415083 
L 218.389497 163.551956 
L 218.420279 163.598086 
L 218.451061 163.567626 
L 218.543407 163.010455 
L 218.728099 159.95012 
L 219.005136 150.747832 
L 219.405301 128.888909 
L 221.098307 23.889267 
L 221.375344 20.043584 
L 221.406126 19.998958 
L 221.436908 20.036415 
L 221.529254 20.616258 
L 221.713945 23.901656 
L 221.990983 33.428388 
L 222.421929 58.08573 
L 224.053371 160.027192 
L 224.299627 163.434937 
L 224.361191 163.549282 
L 224.391973 163.484339 
L 224.5151 162.422419 
L 224.730574 157.503658 
L 225.069175 142.891056 
L 225.530904 112.522371 
L 226.792963 28.713552 
L 227.100782 20.957614 
L 227.254692 20.103392 
L 227.285473 20.175422 
L 227.408601 21.140495 
L 227.593293 24.974285 
L 227.901112 37.46072 
L 228.393623 69.136717 
L 229.655682 154.498561 
L 229.963501 162.571898 
L 230.11741 163.59442 
L 230.148192 163.541251 
L 230.240538 162.882064 
L 230.42523 159.363849 
L 230.702267 149.086282 
L 231.133214 122.736792 
L 232.641528 24.154133 
L 232.887784 20.250243 
L 232.949347 20.060629 
L 232.980129 20.092797 
L 233.072475 20.712053 
L 233.257167 24.287963 
L 233.534204 34.971256 
L 233.965151 61.719123 
L 235.319556 155.408306 
L 235.627375 162.958072 
L 235.750503 163.5625 
L 235.781284 163.491721 
L 235.904412 162.313692 
L 236.089104 158.207949 
L 236.396923 144.928894 
L 236.920216 108.893442 
L 237.966801 33.346579 
L 238.336184 21.504258 
L 238.520876 20.054042 
L 238.58244 20.276366 
L 238.705567 21.80084 
L 238.921041 27.865175 
L 239.290424 46.80071 
L 239.936844 96.48853 
L 240.706392 150.222308 
L 241.075775 162.251324 
L 241.229685 163.572556 
L 241.260467 163.558775 
L 241.352813 162.959183 
L 241.537504 159.387003 
L 241.78376 150.018972 
L 242.214707 122.685272 
L 243.661457 23.937409 
L 243.907712 20.194365 
L 243.969276 20.127068 
L 244.000058 20.224761 
L 244.123186 21.551934 
L 244.338659 27.469764 
L 244.646479 42.877912 
L 245.138989 79.416932 
L 246.062447 148.617606 
L 246.401048 161.092477 
L 246.616522 163.576495 
L 246.678086 163.41297 
L 246.801213 161.930401 
L 247.016687 155.746599 
L 247.355288 138.06622 
L 247.878581 97.51562 
L 248.709692 35.224477 
L 249.079076 21.783918 
L 249.263767 20.034023 
L 249.325331 20.243626 
L 249.448459 21.830026 
L 249.663932 28.027653 
L 250.002533 46.221132 
L 250.648954 97.938076 
L 251.326156 148.009517 
L 251.695539 161.765954 
L 251.880231 163.496454 
L 251.941794 163.298125 
L 252.064922 161.796225 
L 252.280396 155.437838 
L 252.618997 136.955971 
L 253.234635 87.152792 
L 253.94262 34.484596 
L 254.281221 22.012198 
L 254.465912 20.091884 
L 254.496694 20.106186 
L 254.58904 20.768102 
L 254.74295 23.868625 
L 255.019987 35.519691 
L 255.420152 62.962467 
L 256.712993 157.920382 
L 256.99003 163.415499 
L 257.051594 163.544241 
L 257.082376 163.44959 
L 257.205503 162.034532 
L 257.420977 155.644429 
L 257.759578 136.922585 
L 258.282871 94.186973 
L 259.113983 31.57033 
L 259.452584 20.923489 
L 259.575712 20.034535 
L 259.606494 20.079793 
L 259.698839 20.860895 
L 259.883531 25.271845 
L 260.160568 38.165845 
L 260.622297 72.795901 
L 261.607319 150.705444 
L 261.94592 162.355618 
L 262.099829 163.55998 
L 262.130611 163.477299 
L 262.253739 162.065914 
L 262.469212 155.57283 
L 262.777032 138.515184 
L 263.300324 95.371951 
L 264.131436 31.467246 
L 264.470038 20.781547 
L 264.593165 20.04795 
L 264.623947 20.140926 
L 264.747075 21.635085 
L 264.962548 28.249666 
L 265.270368 45.672788 
L 265.79366 89.435018 
L 266.59399 151.615386 
L 266.901809 162.240581 
L 267.055719 163.554058 
L 267.086501 163.47629 
L 267.178847 162.564323 
L 267.363538 157.836125 
L 267.671358 142.093592 
L 268.19465 99.345984 
L 268.99498 34.526953 
L 269.333581 21.648687 
L 269.487491 20.05188 
L 269.518273 20.077555 
L 269.610619 20.848207 
L 269.79531 25.387091 
L 270.072348 38.968362 
L 270.534077 75.46465 
L 271.457534 150.909959 
L 271.765353 162.066799 
L 271.919263 163.548205 
L 271.950045 163.493139 
L 272.042391 162.641827 
L 272.227082 157.831011 
L 272.534902 141.722421 
L 273.058194 97.971765 
L 273.827742 34.65701 
L 274.166344 21.616266 
L 274.320253 20.06227 
L 274.351035 20.107809 
L 274.443381 20.96066 
L 274.628072 25.777981 
L 274.935892 42.126445 
L 275.459184 86.388562 
L 276.228732 149.774211 
L 276.536552 161.711469 
L 276.721243 163.503597 
L 276.813589 162.778967 
L 276.967499 159.193989 
L 277.213754 147.760137 
L 277.644701 114.519759 
L 278.722068 27.503817 
L 278.999106 20.403058 
L 279.060669 20.117011 
L 279.122233 20.300632 
L 279.245361 22.115124 
L 279.460834 29.871255 
L 279.799436 51.929475 
L 281.246186 161.839779 
L 281.400096 163.49284 
L 281.430878 163.450607 
L 281.523223 162.620603 
L 281.707915 157.721933 
L 281.984952 142.870815 
L 282.477463 100.843193 
L 283.339357 29.93384 
L 283.647176 20.531022 
L 283.739522 20.085509 
L 283.770304 20.193463 
L 283.893431 21.868863 
L 284.108905 29.375063 
L 284.447506 51.620066 
L 285.863475 161.548414 
L 286.048166 163.50593 
L 286.140512 162.747508 
L 286.294422 158.956199 
L 286.540677 146.89662 
L 286.971624 111.873146 
L 287.987427 27.462784 
L 288.264465 20.324171 
L 288.326029 20.115867 
L 288.35681 20.202068 
L 288.479938 21.860746 
L 288.66463 28.093908 
L 288.972449 47.393082 
L 289.618869 108.005742 
L 290.203726 153.594343 
L 290.480763 162.733872 
L 290.573109 163.487876 
L 290.634673 163.329914 
L 290.7578 161.439293 
L 290.973274 153.347553 
L 291.281093 132.448824 
L 291.927514 70.720255 
L 292.450806 30.331975 
L 292.727844 20.922737 
L 292.850971 20.1071 
L 292.881753 20.239734 
L 293.004881 22.090043 
L 293.220354 30.257198 
L 293.558956 53.936406 
L 294.944142 162.380314 
L 295.06727 163.477221 
L 295.098052 163.420348 
L 295.190398 162.452144 
L 295.375089 156.901832 
L 295.652126 140.503168 
L 296.175419 92.244157 
L 296.852621 33.301475 
L 297.160441 21.238636 
L 297.283568 20.10417 
L 297.31435 20.165302 
L 297.406696 21.178649 
L 297.591388 26.825953 
L 297.868425 43.428073 
L 298.4225 95.427635 
L 299.099702 152.844722 
L 299.407521 163.03731 
L 299.499867 163.470672 
L 299.530649 163.339248 
L 299.653776 161.427349 
L 299.86925 152.864749 
L 300.177069 130.936941 
L 300.915835 58.399205 
L 301.377564 26.359656 
L 301.62382 20.264567 
L 301.685383 20.13832 
L 301.716165 20.282108 
L 301.839293 22.284489 
L 302.054767 30.954355 
L 302.362586 53.219452 
L 303.71699 162.377939 
L 303.840118 163.481408 
L 303.8709 163.398129 
L 303.994028 161.644577 
L 304.209501 153.200774 
L 304.51732 131.10141 
L 305.256087 57.614775 
L 305.687034 27.025828 
L 305.933289 20.360671 
L 305.994853 20.125846 
L 306.025635 20.222082 
L 306.148762 22.073566 
L 306.364236 30.658316 
L 306.702837 55.925966 
L 307.964896 161.45498 
L 308.118806 163.470113 
L 308.149587 163.434424 
L 308.241933 162.440947 
L 308.426625 156.544545 
L 308.703662 139.009052 
L 309.257737 84.594424 
L 309.842593 32.748226 
L 310.150413 20.889322 
L 310.242758 20.131314 
L 310.27354 20.176038 
L 310.365886 21.208856 
L 310.550578 27.232103 
L 310.827615 45.055014 
L 311.381689 100.011926 
L 311.966546 151.57842 
L 312.243583 162.44583 
L 312.366711 163.462022 
L 312.397493 163.336232 
L 312.520621 161.340802 
L 312.736094 152.213914 
L 313.043913 128.764315 
L 314.305972 21.823229 
L 314.459882 20.146778 
L 314.490664 20.266011 
L 314.613791 22.292409 
L 314.798483 29.713591 
L 315.137084 55.169667 
L 316.337579 160.419868 
L 316.522271 163.461219 
L 316.553053 163.42911 
L 316.645398 162.38477 
L 316.83009 156.23308 
L 317.137909 135.224463 
L 317.845893 62.241695 
L 318.307622 27.040088 
L 318.553878 20.298889 
L 318.58466 20.154285 
L 318.615442 20.168494 
L 318.615442 20.168494 
L 318.707787 21.154273 
L 318.892479 27.290297 
L 319.169516 45.735398 
L 319.754373 105.828747 
L 320.339229 155.40778 
L 320.585485 163.083665 
L 320.647049 163.446074 
L 320.67783 163.387629 
L 320.770176 162.252786 
L 320.954868 155.821676 
L 321.262687 133.999309 
L 321.847544 72.730767 
L 322.340054 30.408343 
L 322.617092 20.614566 
L 322.678656 20.15041 
L 322.740219 20.339998 
L 322.863347 22.664502 
L 323.078821 32.617579 
L 323.448204 63.937431 
L 324.494789 159.15874 
L 324.710263 163.443246 
L 324.771826 163.194917 
L 324.894954 160.765804 
L 325.110428 150.586071 
L 325.479811 118.748801 
L 326.495614 25.032303 
L 326.711088 20.21212 
L 326.741869 20.173227 
L 326.741869 20.173227 
L 326.741869 20.173227 
L 326.803433 20.596303 
L 326.926561 23.384027 
L 327.142035 34.251834 
L 327.511418 67.080868 
L 328.496439 158.386046 
L 328.711913 163.384087 
L 328.742695 163.439632 
L 328.742695 163.439632 
L 328.742695 163.439632 
L 328.804258 163.047362 
L 328.958168 159.144125 
L 329.204423 144.840574 
L 329.63537 102.891299 
L 330.374137 31.05558 
L 330.651174 20.669589 
L 330.712738 20.150321 
L 330.774302 20.339097 
L 330.897429 22.740194 
L 331.112903 33.175655 
L 331.451504 62.364494 
L 332.436525 156.982065 
L 332.682781 163.395156 
L 332.713563 163.434078 
L 332.713563 163.434078 
L 332.713563 163.434078 
L 332.805908 162.514768 
L 332.959818 157.633754 
L 333.206074 141.857465 
L 333.63702 97.975305 
L 334.314223 31.614806 
L 334.59126 20.784952 
L 334.683606 20.194219 
L 334.714388 20.338431 
L 334.837515 22.657795 
L 335.052989 33.005859 
L 335.422372 65.914374 
L 336.34583 156.167022 
L 336.592085 163.282421 
L 336.622867 163.408476 
L 336.653649 163.354324 
L 336.745995 162.165017 
L 336.930686 155.143769 
L 337.238506 131.502092 
L 338.439001 21.870063 
L 338.562128 20.189623 
L 338.59291 20.208608 
L 338.685256 21.334676 
L 338.839166 26.735386 
L 339.116203 46.206168 
L 339.731841 113.616649 
L 340.19357 154.280811 
L 340.439826 163.003727 
L 340.501389 163.442375 
L 340.562953 163.156542 
L 340.686081 160.393467 
L 340.901554 149.073154 
L 341.270938 114.535672 
L 342.194395 25.399113 
L 342.409869 20.169147 
L 342.440651 20.147856 
L 342.532996 21.192067 
L 342.717688 28.072202 
L 343.025507 51.780787 
L 344.226002 162.186633 
L 344.34913 163.437218 
L 344.379912 163.282105 
L 344.50304 160.862629 
L 344.718513 149.991281 
L 345.087896 115.534769 
L 346.011354 25.321686 
L 346.226827 20.192806 
L 346.257609 20.204652 
L 346.349955 21.356233 
L 346.503865 26.872997 
L 346.75012 44.053237 
L 347.273413 101.897397 
L 347.827487 154.385698 
L 348.073743 163.086211 
L 348.135307 163.406733 
L 348.166089 163.293118 
L 348.289216 160.961108 
L 348.473908 152.187709 
L 348.812509 122.151465 
L 349.79753 24.796944 
L 350.013004 20.20833 
L 350.074568 20.594752 
L 350.197695 23.586791 
L 350.413169 35.666038 
L 350.75177 68.382892 
L 351.613664 156.145419 
L 351.859919 163.332182 
L 351.890701 163.380601 
L 351.890701 163.380601 
L 351.890701 163.380601 
L 351.952265 162.905676 
L 352.075393 159.718713 
L 352.290866 147.246033 
L 352.660249 110.340723 
L 353.491361 26.643926 
L 353.706835 20.365246 
L 353.737617 20.224222 
L 353.768399 20.281527 
L 353.860744 21.582061 
L 354.045436 29.238316 
L 354.353255 54.947663 
L 355.430623 160.59403 
L 355.584532 163.363444 
L 355.615314 163.335835 
L 355.70766 162.082623 
L 355.861569 156.218342 
L 356.107825 137.888195 
L 356.600336 81.845033 
L 357.123628 30.21831 
L 357.400666 20.363396 
L 357.431448 20.228716 
L 357.46223 20.290037 
L 357.554575 21.649913 
L 357.739267 29.508824 
L 358.016304 52.490094 
L 359.155235 162.033264 
L 359.278363 163.365179 
L 359.309145 163.202252 
L 359.432273 160.606372 
L 359.647746 148.894246 
L 360.017129 111.87188 
L 360.848241 26.45104 
L 361.063715 20.306377 
L 361.094497 20.223286 
L 361.094497 20.223286 
L 361.094497 20.223286 
L 361.15606 20.660033 
L 361.30997 25.199438 
L 361.556225 41.929749 
L 362.048736 97.789645 
L 362.633593 155.514525 
L 362.879848 163.319075 
L 362.91063 163.38325 
L 362.91063 163.38325 
L 362.91063 163.38325 
L 362.972194 162.902937 
L 363.095322 159.566189 
L 363.341577 143.975172 
L 363.772524 96.419282 
L 364.449726 27.525036 
L 364.695982 20.215358 
L 364.726764 20.226956 
L 364.819109 21.485709 
L 365.003801 29.361628 
L 365.280838 52.695377 
L 366.388987 161.904534 
L 366.512115 163.422634 
L 366.542897 163.274275 
L 366.666025 160.598708 
L 366.850716 150.792226 
L 367.189317 117.969659 
L 368.051211 26.708109 
L 368.266685 20.222987 
L 368.297467 20.141285 
L 368.297467 20.141285 
L 368.297467 20.141285 
L 368.359031 20.633662 
L 368.51294 25.466987 
L 368.759196 42.939245 
L 369.190143 92.387787 
L 369.774999 153.613029 
L 370.021254 163.113463 
L 370.082818 163.436133 
L 370.1136 163.277248 
L 370.236728 160.432185 
L 370.452201 147.841396 
L 370.821584 109.232471 
L 371.560351 29.127692 
L 371.806606 20.372833 
L 371.837388 20.212039 
L 371.86817 20.260034 
L 371.960516 21.6884 
L 372.114425 28.369927 
L 372.422245 55.002438 
L 373.46883 161.241054 
L 373.591958 163.33278 
L 373.62274 163.325701 
L 373.715085 162.041085 
L 373.899777 153.732359 
L 374.207596 125.6857 
L 375.192618 23.364154 
L 375.346527 20.27773 
L 375.377309 20.299991 
L 375.469655 21.657372 
L 375.654347 30.032353 
L 375.931384 54.88926 
L 376.977969 161.575418 
L 377.101097 163.353401 
L 377.131879 163.254376 
L 377.224225 161.649012 
L 377.408916 152.850246 
L 377.716735 123.931112 
L 378.640193 24.924085 
L 378.824885 20.216417 
L 378.855667 20.225606 
L 378.948012 21.555044 
L 379.132704 29.98853 
L 379.440523 58.397989 
L 380.394763 159.70925 
L 380.579454 163.457369 
L 380.641018 162.856406 
L 380.764146 159.013029 
L 381.010401 141.638959 
L 381.47213 86.714775 
L 381.995423 30.588887 
L 382.241678 20.555198 
L 382.303242 20.227285 
L 382.334024 20.399504 
L 382.457152 23.385018 
L 382.672625 36.880293 
L 383.042008 77.630368 
L 383.719211 153.647825 
L 383.965466 163.119606 
L 383.996248 163.315495 
L 384.02703 163.278769 
L 384.02703 163.278769 
L 384.119376 161.840607 
L 384.304067 153.010814 
L 384.611886 123.42241 
L 385.535344 23.970542 
L 385.720036 20.260757 
L 385.781599 20.841897 
L 385.935509 26.20336 
L 386.181764 45.356744 
L 386.766621 118.034224 
L 387.197568 157.811954 
L 387.413041 163.433421 
L 387.474605 162.920196 
L 387.628515 157.667815 
L 387.87477 138.619942 
L 388.428845 69.540806 
L 388.859792 27.481089 
L 389.106047 20.198137 
L 389.167611 20.67173 
L 389.290739 24.481554 
L 389.536994 42.355918 
L 390.029505 102.863827 
L 390.552798 156.592704 
L 390.768271 163.273514 
L 390.799053 163.309878 
L 390.860617 162.681676 
L 391.014527 157.094996 
L 391.260782 137.120534 
L 392.430495 20.37863 
L 392.461277 20.247868 
L 392.492059 20.351939 
L 392.584405 22.079367 
L 392.769096 31.648854 
L 393.046134 58.809547 
L 393.969591 159.924296 
L 394.123501 163.450564 
L 394.154283 163.402781 
L 394.246629 161.793824 
L 394.43132 152.441588 
L 394.739139 121.748203 
L 395.601033 25.191843 
L 395.785725 20.271441 
L 395.816507 20.287392 
L 395.908852 21.752762 
L 396.093544 31.149407 
L 396.401363 62.19257 
L 397.263257 158.786907 
L 397.447949 163.321818 
L 397.509512 162.909768 
L 397.63264 159.244394 
L 397.848114 144.159617 
L 398.217497 100.10524 
L 398.833135 29.50788 
L 399.079391 20.218092 
L 399.110173 20.179601 
L 399.202518 21.517109 
L 399.38721 30.600656 
L 399.695029 61.341074 
L 400.556923 158.724856 
L 400.741614 163.360185 
L 400.803178 162.948118 
L 400.926306 159.177622 
L 401.141779 143.541912 
L 401.541944 94.842055 
L 402.126801 28.492326 
L 402.342275 20.462918 
L 402.373056 20.283518 
L 402.403838 20.35202 
L 402.496184 22.040744 
L 402.680876 31.85131 
L 402.957913 60.059222 
L 403.850589 160.04763 
L 404.004498 163.44736 
L 404.03528 163.33627 
L 404.127626 161.529343 
L 404.312318 151.404403 
L 404.650919 115.001535 
L 405.451249 24.660812 
L 405.63594 20.258253 
L 405.697504 20.79508 
L 405.820632 24.895915 
L 406.036105 41.153765 
L 406.497834 99.690237 
L 406.990345 154.623364 
L 407.2366 163.329486 
L 407.267382 163.284438 
L 407.359728 161.629424 
L 407.54442 151.727702 
L 407.821457 123.181032 
L 408.683351 24.38733 
L 408.868042 20.167592 
L 408.929606 20.855649 
L 409.083516 27.103212 
L 409.360553 52.127552 
L 410.376357 162.316298 
L 410.468702 163.306905 
L 410.499484 163.115539 
L 410.622612 159.821011 
L 410.838086 144.7477 
L 411.238251 94.97984 
L 411.792325 29.877103 
L 412.038581 20.228614 
L 412.069362 20.210958 
L 412.161708 21.736319 
L 412.315618 29.313328 
L 412.592655 56.349507 
L 413.516113 160.840526 
L 413.639241 163.335561 
L 413.670023 163.304225 
L 413.762368 161.637802 
L 413.94706 151.296005 
L 414.254879 117.72881 
L 415.085991 23.242567 
L 415.239901 20.257454 
L 415.270683 20.456056 
L 415.39381 23.839075 
L 415.609284 39.12045 
L 416.009449 89.615392 
L 416.563523 154.619788 
L 416.778997 163.212215 
L 416.809779 163.402179 
L 416.840561 163.315965 
L 416.932906 161.441314 
L 417.117598 150.582607 
L 417.456199 112.093871 
L 418.194965 25.383627 
L 418.379657 20.284176 
L 418.441221 20.714937 
L 418.564348 24.78424 
L 418.779822 41.273185 
L 419.179987 93.227682 
L 419.734062 156.53134 
L 419.949535 163.448159 
L 419.980317 163.369844 
L 420.072663 161.378943 
L 420.257354 150.391506 
L 420.595955 111.492519 
L 421.334722 24.897666 
L 421.519413 20.288503 
L 421.580977 20.915278 
L 421.734887 27.144129 
L 421.981142 49.623007 
L 423.058509 163.448825 
L 423.089291 163.393883 
L 423.181637 161.564472 
L 423.366329 150.878965 
L 423.70493 111.987265 
L 424.443696 24.817024 
L 424.628387 20.290541 
L 424.689951 20.977547 
L 424.843861 27.424293 
L 425.090116 50.414127 
L 426.10592 162.940155 
L 426.167484 163.447099 
L 426.198266 163.257549 
L 426.321393 159.752073 
L 426.536867 143.629912 
L 426.90625 95.946902 
L 427.491106 26.887619 
L 427.70658 20.280216 
L 427.768144 20.897434 
L 427.891271 25.416777 
L 428.137527 46.640872 
L 429.214894 163.395468 
L 429.245676 163.434809 
L 429.338022 161.83349 
L 429.491931 153.694719 
L 429.768969 124.712904 
L 430.630863 22.949912 
L 430.75399 20.292276 
L 430.784772 20.337555 
L 430.877118 22.174334 
L 431.061809 33.216983 
L 431.369629 69.14178 
L 432.108395 158.542555 
L 432.293086 163.461662 
L 432.35465 162.728292 
L 432.50856 155.968663 
L 432.785597 128.456298 
L 433.739837 20.898724 
L 433.801401 20.273017 
L 433.832183 20.395658 
L 433.924528 22.492276 
L 434.10922 34.10439 
L 434.417039 70.851276 
L 435.155805 159.415741 
L 435.309715 163.42732 
L 435.340497 163.356733 
L 435.432843 161.298073 
L 435.617534 149.704837 
L 435.956135 108.580795 
L 436.602556 27.521221 
L 436.818029 20.257706 
L 436.879593 20.77677 
L 437.002721 25.312758 
L 437.218194 43.319243 
L 437.741487 116.446898 
L 438.141652 158.188281 
L 438.326344 163.393964 
L 438.387907 162.780821 
L 438.511035 158.002251 
L 438.75729 135.763272 
L 439.803876 20.24853 
L 439.834658 20.255451 
L 439.927004 22.053137 
L 440.111695 33.328128 
L 440.450296 74.55514 
L 441.127499 158.045437 
L 441.31219 163.353115 
L 441.373754 162.747439 
L 441.496882 158.027353 
L 441.743137 135.618318 
L 442.758941 20.370407 
L 442.789722 20.159821 
L 442.820504 20.252315 
L 442.91285 22.341559 
L 443.097542 34.273605 
L 443.405361 71.849861 
L 444.113345 159.03835 
L 444.267255 163.326748 
L 444.298037 163.28774 
L 444.390383 161.358582 
L 444.575074 149.677958 
L 444.882893 111.968286 
L 445.590878 24.549099 
L 445.744787 20.193173 
L 445.775569 20.227973 
L 445.867915 22.210399 
L 446.052606 34.191428 
L 446.391208 76.727693 
L 447.037628 157.689077 
L 447.22232 163.38005 
L 447.283883 162.823089 
L 447.407011 158.037585 
L 447.622485 139.17206 
L 448.053431 77.652907 
L 448.484378 27.269376 
L 448.699852 20.242993 
L 448.761416 20.976752 
L 448.915325 28.112439 
L 449.192363 57.606186 
L 450.085038 162.626323 
L 450.146602 163.45634 
L 450.208166 162.959955 
L 450.331294 158.296884 
L 450.546767 139.410699 
L 451.100842 59.611403 
L 451.470225 23.502657 
L 451.624135 20.266455 
L 451.71648 22.035455 
L 451.901172 33.688717 
L 452.239773 76.594118 
L 452.886194 158.04014 
L 453.070885 163.38979 
L 453.132449 162.662281 
L 453.286359 155.368397 
L 453.563396 125.432882 
L 454.42529 21.416237 
L 454.517635 20.169677 
L 454.548417 20.391844 
L 454.671545 24.474223 
L 454.887019 42.681301 
L 455.287184 99.965053 
L 455.779694 158.162123 
L 455.964386 163.35238 
L 456.02595 162.540981 
L 456.179859 155.064532 
L 456.456897 124.723379 
L 457.318791 21.193549 
L 457.380354 20.231775 
L 457.441918 20.548717 
L 457.565046 25.086691 
L 457.780519 44.257649 
L 458.211466 107.143102 
L 458.642413 157.524591 
L 458.827105 163.437184 
L 458.888669 162.792864 
L 459.011796 157.705798 
L 459.258052 133.918863 
L 460.212291 20.588839 
L 460.273855 20.265272 
L 460.273855 20.265272 
L 460.273855 20.265272 
L 460.366201 22.221613 
L 460.520111 31.719676 
L 460.797148 64.816796 
L 461.535914 159.586853 
L 461.689824 163.403914 
L 461.720606 163.196605 
L 461.843733 159.061381 
L 462.059207 140.243586 
L 462.5825 63.086589 
L 462.951883 24.241099 
L 463.105792 20.146335 
L 463.136574 20.325269 
L 463.22892 22.848165 
L 463.413611 36.300113 
L 463.752213 81.88907 
L 464.306287 155.371002 
L 464.521761 163.392221 
L 464.583325 162.716971 
L 464.706452 157.482016 
L 464.952708 133.089393 
L 465.876165 20.818325 
L 465.937729 20.202101 
L 465.968511 20.399089 
L 466.060857 22.99385 
L 466.245548 36.753683 
L 466.58415 83.034861 
L 467.138224 156.060973 
L 467.353698 163.443908 
L 467.446044 161.547953 
L 467.630735 149.033715 
L 467.938554 108.677279 
L 468.584975 24.747483 
L 468.738884 20.184258 
L 468.769666 20.276948 
L 468.862012 22.583625 
L 469.046704 35.847855 
L 469.354523 77.091364 
L 469.970161 157.896262 
L 470.154853 163.384001 
L 470.216417 162.505711 
L 470.339544 156.781613 
L 470.5858 131.204873 
L 471.478476 20.903175 
L 471.540039 20.172902 
L 471.570821 20.312534 
L 471.663167 22.788746 
L 471.847859 36.576001 
L 472.18646 83.573885 
L 472.771316 158.680512 
L 472.925226 163.455127 
L 472.956008 163.361278 
L 473.048354 161.000936 
L 473.233045 147.591679 
L 473.602428 95.961218 
L 474.125721 26.999764 
L 474.310413 20.194267 
L 474.341194 20.255651 
L 474.43354 22.529327 
L 474.618232 35.824137 
L 474.956833 82.67057 
L 475.510908 156.632062 
L 475.695599 163.408817 
L 475.726381 163.332819 
L 475.818727 161.014923 
L 476.003418 147.449929 
L 476.311238 105.200815 
L 476.926876 24.675542 
L 477.080786 20.160829 
L 477.111568 20.309385 
L 477.203913 22.81205 
L 477.388605 36.853918 
L 477.757988 89.553193 
L 478.250499 155.471117 
L 478.465972 163.45916 
L 478.527536 162.582022 
L 478.681446 154.371562 
L 478.958483 121.443899 
L 479.728031 22.098288 
L 479.820377 20.172834 
L 479.881941 20.66612 
L 480.005068 25.822317 
L 480.220542 47.069544 
L 481.205563 163.421604 
L 481.267127 162.534052 
L 481.421037 154.236066 
L 481.698074 120.943517 
L 482.467622 21.836229 
L 482.559968 20.158924 
L 482.59075 20.313341 
L 482.683096 22.932256 
L 482.867787 37.324704 
L 483.206389 86.022967 
L 483.760463 158.505248 
L 483.914373 163.449073 
L 483.945155 163.357242 
L 484.0375 160.889988 
L 484.222192 146.720066 
L 484.560793 98.321274 
L 485.084086 27.190288 
L 485.268777 20.149278 
L 485.299559 20.234159 
L 485.391905 22.679113 
L 485.576597 36.705631 
L 485.94598 90.347987 
L 486.438491 156.476778 
L 486.623182 163.447936 
L 486.684746 162.868825 
L 486.807874 157.42451 
L 487.054129 131.319394 
L 487.916023 20.908789 
L 487.977587 20.145621 
L 488.008369 20.319322 
L 488.100714 23.047562 
L 488.285406 37.811394 
L 488.624007 87.194943 
L 489.1473 157.516128 
L 489.331991 163.446117 
L 489.393555 162.507809 
L 489.547465 153.872687 
L 489.824502 119.527077 
L 490.563268 22.16383 
L 490.655614 20.149906 
L 490.717178 20.667582 
L 490.840306 26.156112 
L 491.055779 48.267524 
L 491.979237 163.365999 
L 492.010019 163.458677 
L 492.071583 162.516362 
L 492.225492 153.80436 
L 492.50253 119.169748 
L 493.241296 21.911066 
L 493.333641 20.128076 
L 493.364423 20.294561 
L 493.456769 22.995414 
L 493.641461 37.947258 
L 494.010844 93.317665 
L 494.472573 156.030215 
L 494.657264 163.420489 
L 494.688046 163.335698 
L 494.780392 160.858358 
L 494.965083 146.262843 
L 495.334467 91.131914 
L 495.796195 28.00431 
L 495.980887 20.383893 
L 496.011669 20.43271 
L 496.104015 22.865787 
L 496.288706 37.251682 
L 496.658089 92.21549 
L 497.119818 155.376214 
L 497.30451 162.861294 
L 497.335292 162.803882 
L 497.427637 160.345364 
L 497.612329 145.927477 
L 497.981712 91.043972 
L 498.443441 28.417125 
L 498.628132 21.245723 
L 498.658914 21.355613 
L 498.75126 23.961374 
L 498.935952 38.592646 
L 499.305335 93.68036 
L 499.797845 157.051067 
L 499.951755 161.682196 
L 499.982537 161.477784 
L 500.074883 158.620947 
L 500.259574 143.58679 
L 500.659739 83.453616 
L 501.090686 28.548815 
L 501.275378 22.769718 
L 501.367724 24.871961 
L 501.552415 38.638408 
L 501.891016 86.899907 
L 502.383527 152.96386 
L 502.568219 159.889966 
L 502.629782 159.25698 
L 502.75291 153.654737 
L 502.999166 127.279882 
L 503.799496 26.020103 
L 503.891841 24.842442 
L 503.922623 25.175891 
L 504.045751 30.18119 
L 504.261224 51.264752 
L 505.1539 157.420729 
L 505.184682 157.552855 
L 505.184682 157.552855 
L 505.184682 157.552855 
L 505.246246 156.718148 
L 505.369374 150.840923 
L 505.615629 124.544659 
L 506.415959 28.166097 
L 506.477523 27.415988 
L 506.508305 27.567098 
L 506.600651 30.156835 
L 506.785342 44.272686 
L 507.123943 90.818101 
L 507.616454 150.048248 
L 507.770364 154.671372 
L 507.801146 154.545762 
L 507.893491 152.066888 
L 508.078183 138.471045 
L 508.478348 83.827938 
L 508.909295 34.982014 
L 509.063205 30.53485 
L 509.093986 30.662408 
L 509.186332 33.096392 
L 509.371024 46.503424 
L 509.709625 90.766016 
L 510.171354 145.413778 
L 510.356045 151.336457 
L 510.417609 150.671751 
L 510.540737 145.406135 
L 510.75621 125.348712 
L 511.587322 34.61197 
L 511.648886 34.103432 
L 511.679668 34.339116 
L 511.802796 38.488831 
L 512.018269 56.68527 
L 512.910945 147.556089 
L 512.941727 147.547702 
L 513.034073 145.623398 
L 513.218764 133.77833 
L 513.557365 93.504144 
L 514.019094 43.494699 
L 514.203786 37.98495 
L 514.26535 38.57214 
L 514.388477 43.385117 
L 514.603951 61.751843 
L 515.465845 143.532317 
L 515.496627 143.534052 
L 515.588972 141.766146 
L 515.773664 130.732511 
L 516.112265 93.050921 
L 516.604776 45.518918 
L 516.758686 42.142474 
L 516.789467 42.328529 
L 516.881813 44.594985 
L 517.066505 56.101988 
L 517.497452 103.997483 
L 517.897617 136.979959 
L 518.020744 139.294543 
L 518.051526 139.185495 
L 518.143872 137.208452 
L 518.328564 126.499216 
L 518.759511 80.855769 
L 519.159676 48.893751 
L 519.282803 46.521247 
L 519.313585 46.586344 
L 519.405931 48.328883 
L 519.590623 58.426443 
L 519.990788 98.528138 
L 520.421734 132.476955 
L 520.544862 134.831837 
L 520.575644 134.788041 
L 520.66799 133.150005 
L 520.852681 123.570616 
L 521.222065 88.670519 
L 521.653011 54.330034 
L 521.806921 51.034802 
L 521.837703 51.08951 
L 521.930049 52.687974 
L 522.11474 61.866938 
L 522.484123 95.023281 
L 522.91507 127.285547 
L 523.06898 130.284452 
L 523.099762 130.197986 
L 523.192108 128.577927 
L 523.376799 119.700799 
L 523.746182 88.233671 
L 524.177129 58.17478 
L 524.331039 55.609537 
L 524.361821 55.74578 
L 524.484948 58.386348 
L 524.700422 70.221889 
L 525.562316 125.673531 
L 525.593098 125.678415 
L 525.685443 124.484391 
L 525.870135 117.036485 
L 526.208736 92.119381 
L 526.670465 62.647982 
L 526.824375 60.179066 
L 526.855157 60.257364 
L 526.947502 61.627347 
L 527.132194 69.022983 
L 527.501577 95.004702 
L 527.932524 119.322582 
L 528.086434 121.149072 
L 528.178779 120.117339 
L 528.363471 113.647603 
L 528.702072 92.014611 
L 529.163801 66.630929 
L 529.31771 64.65921 
L 529.348492 64.75492 
L 529.47162 66.771887 
L 529.687094 75.669481 
L 530.548987 116.7547 
L 530.610551 116.505573 
L 530.733679 114.248677 
L 530.979934 103.858451 
L 531.687919 69.774768 
L 531.780264 68.987171 
L 531.841828 69.164658 
L 531.964956 71.169675 
L 532.180429 79.078439 
L 532.949977 112.160169 
L 533.011541 112.530534 
L 533.073105 112.383675 
L 533.196233 110.605283 
L 533.442488 102.090098 
L 534.181254 73.41693 
L 534.242818 73.079722 
L 534.304382 73.215822 
L 534.42751 74.829962 
L 534.673765 82.539555 
L 535.381749 108.010943 
L 535.474095 108.583894 
L 535.535659 108.441 
L 535.658787 106.949937 
L 535.905042 99.968228 
L 536.613026 77.331604 
L 536.705372 76.873485 
L 536.736154 76.910596 
L 536.8285 77.563036 
L 537.013191 81.11811 
L 537.567266 99.420864 
L 537.844303 104.616104 
L 537.936649 104.950511 
L 537.967431 104.893635 
L 538.090559 103.870431 
L 538.306032 99.417899 
L 539.106362 80.409646 
L 539.167926 80.346564 
L 539.198708 80.422865 
L 539.321836 81.437958 
L 539.537309 85.451582 
L 540.306857 101.563953 
L 540.368421 101.682676 
L 540.399203 101.646763 
L 540.491549 101.168395 
L 540.67624 98.748284 
L 541.568916 83.402443 
L 541.599698 83.409612 
L 541.692044 83.748747 
L 541.876735 85.717809 
L 542.2769 93.163367 
L 542.677065 98.522589 
L 542.800193 98.826673 
L 542.830975 98.788711 
L 542.954103 98.206713 
L 543.200358 95.324781 
L 543.87756 86.402294 
L 544.000688 86.141289 
L 544.03147 86.168355 
L 544.154598 86.633254 
L 544.370071 88.562247 
L 545.078056 95.86181 
L 545.201183 96.052513 
L 545.231965 96.029497 
L 545.355093 95.675846 
L 545.601348 93.959611 
L 546.247769 89.051206 
L 546.401678 88.851517 
L 546.43246 88.871707 
L 546.555588 89.13282 
L 546.832625 90.516492 
L 547.3867 93.415455 
L 547.602173 93.659014 
L 547.756083 93.460611 
L 548.03312 92.577325 
L 548.556413 90.917048 
L 548.771886 90.752785 
L 548.956578 90.886284 
L 549.325961 91.587989 
L 549.756908 92.242653 
L 550.003163 92.297341 
L 550.310983 92.097033 
L 550.957403 91.618659 
L 551.357568 91.646451 
L 552.404153 91.848419 
L 554.774362 91.800035 
L 555.39 91.800001 
L 555.39 91.800001 
" style="fill:none;stroke:#000000;stroke-linecap:square;stroke-width:0.6;"/>
   </g>
   <g id="patch_3">
    <path d="M 62.91 12.96 
L 555.39 12.96 
" style="fill:none;stroke:#000000;stroke-linecap:square;stroke-linejoin:miter;"/>
   </g>
   <g id="patch_4">
    <path d="M 555.39 170.64 
L 555.39 12.96 
" style="fill:none;stroke:#000000;stroke-linecap:square;stroke-linejoin:miter;"/>
   </g>
   <g id="patch_5">
    <path d="M 62.91 170.64 
L 555.39 170.64 
" style="fill:none;stroke:#000000;stroke-linecap:square;stroke-linejoin:miter;"/>
   </g>
   <g id="patch_6">
    <path d="M 62.91 170.64 
L 62.91 12.96 
" style="fill:none;stroke:#000000;stroke-linecap:square;stroke-linejoin:miter;"/>
   </g>
   <g id="matplotlib.axis_1">
    <g id="xtick_1">
     <g id="line2d_2">
      <defs>
       <path d="M 0 0 
L 0 -4 
" id="m7bc454a0e9" style="stroke:#000000;stroke-width:0.5;"/>
      </defs>
      <g>
       <use style="stroke:#000000;stroke-width:0.5;" x="62.91" xlink:href="#m7bc454a0e9" y="170.64"/>
      </g>
     </g>
     <g id="line2d_3">
      <defs>
       <path d="M 0 0 
L 0 4 
" id="m9be4e7e203" style="stroke:#000000;stroke-width:0.5;"/>
      </defs>
      <g>
       <use style="stroke:#000000;stroke-width:0.5;" x="62.91" xlink:href="#m9be4e7e203" y="12.96"/>
      </g>
     </g>
     <g id="text_1">
      <!-- 0 -->
      <defs>
       <path d="M 31.78125 66.40625 
Q 24.171875 66.40625 20.328125 58.90625 
Q 16.5 51.421875 16.5 36.375 
Q 16.5 21.390625 20.328125 13.890625 
Q 24.171875 6.390625 31.78125 6.390625 
Q 39.453125 6.390625 43.28125 13.890625 
Q 47.125 21.390625 47.125 36.375 
Q 47.125 51.421875 43.28125 58.90625 
Q 39.453125 66.40625 31.78125 66.40625 
M 31.78125 74.21875 
Q 44.046875 74.21875 50.515625 64.515625 
Q 56.984375 54.828125 56.984375 36.375 
Q 56.984375 17.96875 50.515625 8.265625 
Q 44.046875 -1.421875 31.78125 -1.421875 
Q 19.53125 -1.421875 13.0625 8.265625 
Q 6.59375 17.96875 6.59375 36.375 
Q 6.59375 54.828125 13.0625 64.515625 
Q 19.53125 74.21875 31.78125 74.21875 
" id="BitstreamVeraSans-Roman-30"/>
      </defs>
      <g transform="translate(59.0925 183.758125)scale(0.12 -0.12)">
       <use xlink:href="#BitstreamVeraSans-Roman-30"/>
      </g>
     </g>
    </g>
    <g id="xtick_2">
     <g id="line2d_4">
      <g>
       <use style="stroke:#000000;stroke-width:0.5;" x="124.47" xlink:href="#m7bc454a0e9" y="170.64"/>
      </g>
     </g>
     <g id="line2d_5">
      <g>
       <use style="stroke:#000000;stroke-width:0.5;" x="124.47" xlink:href="#m9be4e7e203" y="12.96"/>
      </g>
     </g>
     <g id="text_2">
      <!-- 2 -->
      <defs>
       <path d="M 19.1875 8.296875 
L 53.609375 8.296875 
L 53.609375 0 
L 7.328125 0 
L 7.328125 8.296875 
Q 12.9375 14.109375 22.625 23.890625 
Q 32.328125 33.6875 34.8125 36.53125 
Q 39.546875 41.84375 41.421875 45.53125 
Q 43.3125 49.21875 43.3125 52.78125 
Q 43.3125 58.59375 39.234375 62.25 
Q 35.15625 65.921875 28.609375 65.921875 
Q 23.96875 65.921875 18.8125 64.3125 
Q 13.671875 62.703125 7.8125 59.421875 
L 7.8125 69.390625 
Q 13.765625 71.78125 18.9375 73 
Q 24.125 74.21875 28.421875 74.21875 
Q 39.75 74.21875 46.484375 68.546875 
Q 53.21875 62.890625 53.21875 53.421875 
Q 53.21875 48.921875 51.53125 44.890625 
Q 49.859375 40.875 45.40625 35.40625 
Q 44.1875 33.984375 37.640625 27.21875 
Q 31.109375 20.453125 19.1875 8.296875 
" id="BitstreamVeraSans-Roman-32"/>
      </defs>
      <g transform="translate(120.6525 183.758125)scale(0.12 -0.12)">
       <use xlink:href="#BitstreamVeraSans-Roman-32"/>
      </g>
     </g>
    </g>
    <g id="xtick_3">
     <g id="line2d_6">
      <g>
       <use style="stroke:#000000;stroke-width:0.5;" x="186.03" xlink:href="#m7bc454a0e9" y="170.64"/>
      </g>
     </g>
     <g id="line2d_7">
      <g>
       <use style="stroke:#000000;stroke-width:0.5;" x="186.03" xlink:href="#m9be4e7e203" y="12.96"/>
      </g>
     </g>
     <g id="text_3">
      <!-- 4 -->
      <defs>
       <path d="M 37.796875 64.3125 
L 12.890625 25.390625 
L 37.796875 25.390625 
z
M 35.203125 72.90625 
L 47.609375 72.90625 
L 47.609375 25.390625 
L 58.015625 25.390625 
L 58.015625 17.1875 
L 47.609375 17.1875 
L 47.609375 0 
L 37.796875 0 
L 37.796875 17.1875 
L 4.890625 17.1875 
L 4.890625 26.703125 
z
" id="BitstreamVeraSans-Roman-34"/>
      </defs>
      <g transform="translate(182.2125 183.758125)scale(0.12 -0.12)">
       <use xlink:href="#BitstreamVeraSans-Roman-34"/>
      </g>
     </g>
    </g>
    <g id="xtick_4">
     <g id="line2d_8">
      <g>
       <use style="stroke:#000000;stroke-width:0.5;" x="247.59" xlink:href="#m7bc454a0e9" y="170.64"/>
      </g>
     </g>
     <g id="line2d_9">
      <g>
       <use style="stroke:#000000;stroke-width:0.5;" x="247.59" xlink:href="#m9be4e7e203" y="12.96"/>
      </g>
     </g>
     <g id="text_4">
      <!-- 6 -->
      <defs>
       <path d="M 33.015625 40.375 
Q 26.375 40.375 22.484375 35.828125 
Q 18.609375 31.296875 18.609375 23.390625 
Q 18.609375 15.53125 22.484375 10.953125 
Q 26.375 6.390625 33.015625 6.390625 
Q 39.65625 6.390625 43.53125 10.953125 
Q 47.40625 15.53125 47.40625 23.390625 
Q 47.40625 31.296875 43.53125 35.828125 
Q 39.65625 40.375 33.015625 40.375 
M 52.59375 71.296875 
L 52.59375 62.3125 
Q 48.875 64.0625 45.09375 64.984375 
Q 41.3125 65.921875 37.59375 65.921875 
Q 27.828125 65.921875 22.671875 59.328125 
Q 17.53125 52.734375 16.796875 39.40625 
Q 19.671875 43.65625 24.015625 45.921875 
Q 28.375 48.1875 33.59375 48.1875 
Q 44.578125 48.1875 50.953125 41.515625 
Q 57.328125 34.859375 57.328125 23.390625 
Q 57.328125 12.15625 50.6875 5.359375 
Q 44.046875 -1.421875 33.015625 -1.421875 
Q 20.359375 -1.421875 13.671875 8.265625 
Q 6.984375 17.96875 6.984375 36.375 
Q 6.984375 53.65625 15.1875 63.9375 
Q 23.390625 74.21875 37.203125 74.21875 
Q 40.921875 74.21875 44.703125 73.484375 
Q 48.484375 72.75 52.59375 71.296875 
" id="BitstreamVeraSans-Roman-36"/>
      </defs>
      <g transform="translate(243.7725 183.758125)scale(0.12 -0.12)">
       <use xlink:href="#BitstreamVeraSans-Roman-36"/>
      </g>
     </g>
    </g>
    <g id="xtick_5">
     <g id="line2d_10">
      <g>
       <use style="stroke:#000000;stroke-width:0.5;" x="309.15" xlink:href="#m7bc454a0e9" y="170.64"/>
      </g>
     </g>
     <g id="line2d_11">
      <g>
       <use style="stroke:#000000;stroke-width:0.5;" x="309.15" xlink:href="#m9be4e7e203" y="12.96"/>
      </g>
     </g>
     <g id="text_5">
      <!-- 8 -->
      <defs>
       <path d="M 31.78125 34.625 
Q 24.75 34.625 20.71875 30.859375 
Q 16.703125 27.09375 16.703125 20.515625 
Q 16.703125 13.921875 20.71875 10.15625 
Q 24.75 6.390625 31.78125 6.390625 
Q 38.8125 6.390625 42.859375 10.171875 
Q 46.921875 13.96875 46.921875 20.515625 
Q 46.921875 27.09375 42.890625 30.859375 
Q 38.875 34.625 31.78125 34.625 
M 21.921875 38.8125 
Q 15.578125 40.375 12.03125 44.71875 
Q 8.5 49.078125 8.5 55.328125 
Q 8.5 64.0625 14.71875 69.140625 
Q 20.953125 74.21875 31.78125 74.21875 
Q 42.671875 74.21875 48.875 69.140625 
Q 55.078125 64.0625 55.078125 55.328125 
Q 55.078125 49.078125 51.53125 44.71875 
Q 48 40.375 41.703125 38.8125 
Q 48.828125 37.15625 52.796875 32.3125 
Q 56.78125 27.484375 56.78125 20.515625 
Q 56.78125 9.90625 50.3125 4.234375 
Q 43.84375 -1.421875 31.78125 -1.421875 
Q 19.734375 -1.421875 13.25 4.234375 
Q 6.78125 9.90625 6.78125 20.515625 
Q 6.78125 27.484375 10.78125 32.3125 
Q 14.796875 37.15625 21.921875 38.8125 
M 18.3125 54.390625 
Q 18.3125 48.734375 21.84375 45.5625 
Q 25.390625 42.390625 31.78125 42.390625 
Q 38.140625 42.390625 41.71875 45.5625 
Q 45.3125 48.734375 45.3125 54.390625 
Q 45.3125 60.0625 41.71875 63.234375 
Q 38.140625 66.40625 31.78125 66.40625 
Q 25.390625 66.40625 21.84375 63.234375 
Q 18.3125 60.0625 18.3125 54.390625 
" id="BitstreamVeraSans-Roman-38"/>
      </defs>
      <g transform="translate(305.3325 183.758125)scale(0.12 -0.12)">
       <use xlink:href="#BitstreamVeraSans-Roman-38"/>
      </g>
     </g>
    </g>
    <g id="xtick_6">
     <g id="line2d_12">
      <g>
       <use style="stroke:#000000;stroke-width:0.5;" x="370.71" xlink:href="#m7bc454a0e9" y="170.64"/>
      </g>
     </g>
     <g id="line2d_13">
      <g>
       <use style="stroke:#000000;stroke-width:0.5;" x="370.71" xlink:href="#m9be4e7e203" y="12.96"/>
      </g>
     </g>
     <g id="text_6">
      <!-- 10 -->
      <defs>
       <path d="M 12.40625 8.296875 
L 28.515625 8.296875 
L 28.515625 63.921875 
L 10.984375 60.40625 
L 10.984375 69.390625 
L 28.421875 72.90625 
L 38.28125 72.90625 
L 38.28125 8.296875 
L 54.390625 8.296875 
L 54.390625 0 
L 12.40625 0 
z
" id="BitstreamVeraSans-Roman-31"/>
      </defs>
      <g transform="translate(363.075 183.758125)scale(0.12 -0.12)">
       <use xlink:href="#BitstreamVeraSans-Roman-31"/>
       <use x="63.623046875" xlink:href="#BitstreamVeraSans-Roman-30"/>
      </g>
     </g>
    </g>
    <g id="xtick_7">
     <g id="line2d_14">
      <g>
       <use style="stroke:#000000;stroke-width:0.5;" x="432.27" xlink:href="#m7bc454a0e9" y="170.64"/>
      </g>
     </g>
     <g id="line2d_15">
      <g>
       <use style="stroke:#000000;stroke-width:0.5;" x="432.27" xlink:href="#m9be4e7e203" y="12.96"/>
      </g>
     </g>
     <g id="text_7">
      <!-- 12 -->
      <g transform="translate(424.635 183.758125)scale(0.12 -0.12)">
       <use xlink:href="#BitstreamVeraSans-Roman-31"/>
       <use x="63.623046875" xlink:href="#BitstreamVeraSans-Roman-32"/>
      </g>
     </g>
    </g>
    <g id="xtick_8">
     <g id="line2d_16">
      <g>
       <use style="stroke:#000000;stroke-width:0.5;" x="493.83" xlink:href="#m7bc454a0e9" y="170.64"/>
      </g>
     </g>
     <g id="line2d_17">
      <g>
       <use style="stroke:#000000;stroke-width:0.5;" x="493.83" xlink:href="#m9be4e7e203" y="12.96"/>
      </g>
     </g>
     <g id="text_8">
      <!-- 14 -->
      <g transform="translate(486.195 183.758125)scale(0.12 -0.12)">
       <use xlink:href="#BitstreamVeraSans-Roman-31"/>
       <use x="63.623046875" xlink:href="#BitstreamVeraSans-Roman-34"/>
      </g>
     </g>
    </g>
    <g id="xtick_9">
     <g id="line2d_18">
      <g>
       <use style="stroke:#000000;stroke-width:0.5;" x="555.39" xlink:href="#m7bc454a0e9" y="170.64"/>
      </g>
     </g>
     <g id="line2d_19">
      <g>
       <use style="stroke:#000000;stroke-width:0.5;" x="555.39" xlink:href="#m9be4e7e203" y="12.96"/>
      </g>
     </g>
     <g id="text_9">
      <!-- 16 -->
      <g transform="translate(547.755 183.758125)scale(0.12 -0.12)">
       <use xlink:href="#BitstreamVeraSans-Roman-31"/>
       <use x="63.623046875" xlink:href="#BitstreamVeraSans-Roman-36"/>
      </g>
     </g>
    </g>
    <g id="text_10">
     <!-- Time (ms) -->
     <defs>
      <path id="BitstreamVeraSans-Roman-20"/>
      <path d="M 8.015625 75.875 
L 15.828125 75.875 
Q 23.140625 64.359375 26.78125 53.3125 
Q 30.421875 42.28125 30.421875 31.390625 
Q 30.421875 20.453125 26.78125 9.375 
Q 23.140625 -1.703125 15.828125 -13.1875 
L 8.015625 -13.1875 
Q 14.5 -2 17.703125 9.0625 
Q 20.90625 20.125 20.90625 31.390625 
Q 20.90625 42.671875 17.703125 53.65625 
Q 14.5 64.65625 8.015625 75.875 
" id="BitstreamVeraSans-Roman-29"/>
      <path d="M 31 75.875 
Q 24.46875 64.65625 21.28125 53.65625 
Q 18.109375 42.671875 18.109375 31.390625 
Q 18.109375 20.125 21.3125 9.0625 
Q 24.515625 -2 31 -13.1875 
L 23.1875 -13.1875 
Q 15.875 -1.703125 12.234375 9.375 
Q 8.59375 20.453125 8.59375 31.390625 
Q 8.59375 42.28125 12.203125 53.3125 
Q 15.828125 64.359375 23.1875 75.875 
z
" id="BitstreamVeraSans-Roman-28"/>
      <path d="M 9.421875 54.6875 
L 18.40625 54.6875 
L 18.40625 0 
L 9.421875 0 
z
M 9.421875 75.984375 
L 18.40625 75.984375 
L 18.40625 64.59375 
L 9.421875 64.59375 
z
" id="BitstreamVeraSans-Roman-69"/>
      <path d="M 52 44.1875 
Q 55.375 50.25 60.0625 53.125 
Q 64.75 56 71.09375 56 
Q 79.640625 56 84.28125 50.015625 
Q 88.921875 44.046875 88.921875 33.015625 
L 88.921875 0 
L 79.890625 0 
L 79.890625 32.71875 
Q 79.890625 40.578125 77.09375 44.375 
Q 74.3125 48.1875 68.609375 48.1875 
Q 61.625 48.1875 57.5625 43.546875 
Q 53.515625 38.921875 53.515625 30.90625 
L 53.515625 0 
L 44.484375 0 
L 44.484375 32.71875 
Q 44.484375 40.625 41.703125 44.40625 
Q 38.921875 48.1875 33.109375 48.1875 
Q 26.21875 48.1875 22.15625 43.53125 
Q 18.109375 38.875 18.109375 30.90625 
L 18.109375 0 
L 9.078125 0 
L 9.078125 54.6875 
L 18.109375 54.6875 
L 18.109375 46.1875 
Q 21.1875 51.21875 25.484375 53.609375 
Q 29.78125 56 35.6875 56 
Q 41.65625 56 45.828125 52.96875 
Q 50 49.953125 52 44.1875 
" id="BitstreamVeraSans-Roman-6d"/>
      <path d="M 56.203125 29.59375 
L 56.203125 25.203125 
L 14.890625 25.203125 
Q 15.484375 15.921875 20.484375 11.0625 
Q 25.484375 6.203125 34.421875 6.203125 
Q 39.59375 6.203125 44.453125 7.46875 
Q 49.3125 8.734375 54.109375 11.28125 
L 54.109375 2.78125 
Q 49.265625 0.734375 44.1875 -0.34375 
Q 39.109375 -1.421875 33.890625 -1.421875 
Q 20.796875 -1.421875 13.15625 6.1875 
Q 5.515625 13.8125 5.515625 26.8125 
Q 5.515625 40.234375 12.765625 48.109375 
Q 20.015625 56 32.328125 56 
Q 43.359375 56 49.78125 48.890625 
Q 56.203125 41.796875 56.203125 29.59375 
M 47.21875 32.234375 
Q 47.125 39.59375 43.09375 43.984375 
Q 39.0625 48.390625 32.421875 48.390625 
Q 24.90625 48.390625 20.390625 44.140625 
Q 15.875 39.890625 15.1875 32.171875 
z
" id="BitstreamVeraSans-Roman-65"/>
      <path d="M -0.296875 72.90625 
L 61.375 72.90625 
L 61.375 64.59375 
L 35.5 64.59375 
L 35.5 0 
L 25.59375 0 
L 25.59375 64.59375 
L -0.296875 64.59375 
z
" id="BitstreamVeraSans-Roman-54"/>
      <path d="M 44.28125 53.078125 
L 44.28125 44.578125 
Q 40.484375 46.53125 36.375 47.5 
Q 32.28125 48.484375 27.875 48.484375 
Q 21.1875 48.484375 17.84375 46.4375 
Q 14.5 44.390625 14.5 40.28125 
Q 14.5 37.15625 16.890625 35.375 
Q 19.28125 33.59375 26.515625 31.984375 
L 29.59375 31.296875 
Q 39.15625 29.25 43.1875 25.515625 
Q 47.21875 21.78125 47.21875 15.09375 
Q 47.21875 7.46875 41.1875 3.015625 
Q 35.15625 -1.421875 24.609375 -1.421875 
Q 20.21875 -1.421875 15.453125 -0.5625 
Q 10.6875 0.296875 5.421875 2 
L 5.421875 11.28125 
Q 10.40625 8.6875 15.234375 7.390625 
Q 20.0625 6.109375 24.8125 6.109375 
Q 31.15625 6.109375 34.5625 8.28125 
Q 37.984375 10.453125 37.984375 14.40625 
Q 37.984375 18.0625 35.515625 20.015625 
Q 33.0625 21.96875 24.703125 23.78125 
L 21.578125 24.515625 
Q 13.234375 26.265625 9.515625 29.90625 
Q 5.8125 33.546875 5.8125 39.890625 
Q 5.8125 47.609375 11.28125 51.796875 
Q 16.75 56 26.8125 56 
Q 31.78125 56 36.171875 55.265625 
Q 40.578125 54.546875 44.28125 53.078125 
" id="BitstreamVeraSans-Roman-73"/>
     </defs>
     <g transform="translate(278.72625 200.371875)scale(0.12 -0.12)">
      <use xlink:href="#BitstreamVeraSans-Roman-54"/>
      <use x="61.037109375" xlink:href="#BitstreamVeraSans-Roman-69"/>
      <use x="88.8203125" xlink:href="#BitstreamVeraSans-Roman-6d"/>
      <use x="186.232421875" xlink:href="#BitstreamVeraSans-Roman-65"/>
      <use x="247.755859375" xlink:href="#BitstreamVeraSans-Roman-20"/>
      <use x="279.54296875" xlink:href="#BitstreamVeraSans-Roman-28"/>
      <use x="318.556640625" xlink:href="#BitstreamVeraSans-Roman-6d"/>
      <use x="415.96875" xlink:href="#BitstreamVeraSans-Roman-73"/>
      <use x="468.068359375" xlink:href="#BitstreamVeraSans-Roman-29"/>
     </g>
    </g>
   </g>
   <g id="matplotlib.axis_2">
    <g id="ytick_1">
     <g id="line2d_20">
      <defs>
       <path d="M 0 0 
L 4 0 
" id="m1fba6ed22d" style="stroke:#000000;stroke-width:0.5;"/>
      </defs>
      <g>
       <use style="stroke:#000000;stroke-width:0.5;" x="62.91" xlink:href="#m1fba6ed22d" y="163.472727273"/>
      </g>
     </g>
     <g id="line2d_21">
      <defs>
       <path d="M 0 0 
L -4 0 
" id="mc0b22084aa" style="stroke:#000000;stroke-width:0.5;"/>
      </defs>
      <g>
       <use style="stroke:#000000;stroke-width:0.5;" x="555.39" xlink:href="#mc0b22084aa" y="163.472727273"/>
      </g>
     </g>
     <g id="text_11">
      <!-- 1.0 -->
      <defs>
       <path d="M 10.59375 35.5 
L 73.1875 35.5 
L 73.1875 27.203125 
L 10.59375 27.203125 
z
" id="BitstreamVeraSans-Roman-2212"/>
       <path d="M 10.6875 12.40625 
L 21 12.40625 
L 21 0 
L 10.6875 0 
z
" id="BitstreamVeraSans-Roman-2e"/>
      </defs>
      <g transform="translate(29.770625 166.783977273)scale(0.12 -0.12)">
       <use xlink:href="#BitstreamVeraSans-Roman-2212"/>
       <use x="83.7890625" xlink:href="#BitstreamVeraSans-Roman-31"/>
       <use x="147.412109375" xlink:href="#BitstreamVeraSans-Roman-2e"/>
       <use x="179.19921875" xlink:href="#BitstreamVeraSans-Roman-30"/>
      </g>
     </g>
    </g>
    <g id="ytick_2">
     <g id="line2d_22">
      <g>
       <use style="stroke:#000000;stroke-width:0.5;" x="62.91" xlink:href="#m1fba6ed22d" y="127.636363636"/>
      </g>
     </g>
     <g id="line2d_23">
      <g>
       <use style="stroke:#000000;stroke-width:0.5;" x="555.39" xlink:href="#mc0b22084aa" y="127.636363636"/>
      </g>
     </g>
     <g id="text_12">
      <!-- 0.5 -->
      <defs>
       <path d="M 10.796875 72.90625 
L 49.515625 72.90625 
L 49.515625 64.59375 
L 19.828125 64.59375 
L 19.828125 46.734375 
Q 21.96875 47.46875 24.109375 47.828125 
Q 26.265625 48.1875 28.421875 48.1875 
Q 40.625 48.1875 47.75 41.5 
Q 54.890625 34.8125 54.890625 23.390625 
Q 54.890625 11.625 47.5625 5.09375 
Q 40.234375 -1.421875 26.90625 -1.421875 
Q 22.3125 -1.421875 17.546875 -0.640625 
Q 12.796875 0.140625 7.71875 1.703125 
L 7.71875 11.625 
Q 12.109375 9.234375 16.796875 8.0625 
Q 21.484375 6.890625 26.703125 6.890625 
Q 35.15625 6.890625 40.078125 11.328125 
Q 45.015625 15.765625 45.015625 23.390625 
Q 45.015625 31 40.078125 35.4375 
Q 35.15625 39.890625 26.703125 39.890625 
Q 22.75 39.890625 18.8125 39.015625 
Q 14.890625 38.140625 10.796875 36.28125 
z
" id="BitstreamVeraSans-Roman-35"/>
      </defs>
      <g transform="translate(29.770625 130.947613636)scale(0.12 -0.12)">
       <use xlink:href="#BitstreamVeraSans-Roman-2212"/>
       <use x="83.7890625" xlink:href="#BitstreamVeraSans-Roman-30"/>
       <use x="147.412109375" xlink:href="#BitstreamVeraSans-Roman-2e"/>
       <use x="179.19921875" xlink:href="#BitstreamVeraSans-Roman-35"/>
      </g>
     </g>
    </g>
    <g id="ytick_3">
     <g id="line2d_24">
      <g>
       <use style="stroke:#000000;stroke-width:0.5;" x="62.91" xlink:href="#m1fba6ed22d" y="91.8"/>
      </g>
     </g>
     <g id="line2d_25">
      <g>
       <use style="stroke:#000000;stroke-width:0.5;" x="555.39" xlink:href="#mc0b22084aa" y="91.8"/>
      </g>
     </g>
     <g id="text_13">
      <!-- 0.0 -->
      <g transform="translate(39.82625 95.11125)scale(0.12 -0.12)">
       <use xlink:href="#BitstreamVeraSans-Roman-30"/>
       <use x="63.623046875" xlink:href="#BitstreamVeraSans-Roman-2e"/>
       <use x="95.41015625" xlink:href="#BitstreamVeraSans-Roman-30"/>
      </g>
     </g>
    </g>
    <g id="ytick_4">
     <g id="line2d_26">
      <g>
       <use style="stroke:#000000;stroke-width:0.5;" x="62.91" xlink:href="#m1fba6ed22d" y="55.9636363636"/>
      </g>
     </g>
     <g id="line2d_27">
      <g>
       <use style="stroke:#000000;stroke-width:0.5;" x="555.39" xlink:href="#mc0b22084aa" y="55.9636363636"/>
      </g>
     </g>
     <g id="text_14">
      <!-- 0.5 -->
      <g transform="translate(39.82625 59.2748863636)scale(0.12 -0.12)">
       <use xlink:href="#BitstreamVeraSans-Roman-30"/>
       <use x="63.623046875" xlink:href="#BitstreamVeraSans-Roman-2e"/>
       <use x="95.41015625" xlink:href="#BitstreamVeraSans-Roman-35"/>
      </g>
     </g>
    </g>
    <g id="ytick_5">
     <g id="line2d_28">
      <g>
       <use style="stroke:#000000;stroke-width:0.5;" x="62.91" xlink:href="#m1fba6ed22d" y="20.1272727273"/>
      </g>
     </g>
     <g id="line2d_29">
      <g>
       <use style="stroke:#000000;stroke-width:0.5;" x="555.39" xlink:href="#mc0b22084aa" y="20.1272727273"/>
      </g>
     </g>
     <g id="text_15">
      <!-- 1.0 -->
      <g transform="translate(39.82625 23.4385227273)scale(0.12 -0.12)">
       <use xlink:href="#BitstreamVeraSans-Roman-31"/>
       <use x="63.623046875" xlink:href="#BitstreamVeraSans-Roman-2e"/>
       <use x="95.41015625" xlink:href="#BitstreamVeraSans-Roman-30"/>
      </g>
     </g>
    </g>
    <g id="text_16">
     <!-- Amplitude -->
     <defs>
      <path d="M 9.421875 75.984375 
L 18.40625 75.984375 
L 18.40625 0 
L 9.421875 0 
z
" id="BitstreamVeraSans-Roman-6c"/>
      <path d="M 34.1875 63.1875 
L 20.796875 26.90625 
L 47.609375 26.90625 
z
M 28.609375 72.90625 
L 39.796875 72.90625 
L 67.578125 0 
L 57.328125 0 
L 50.6875 18.703125 
L 17.828125 18.703125 
L 11.1875 0 
L 0.78125 0 
z
" id="BitstreamVeraSans-Roman-41"/>
      <path d="M 45.40625 46.390625 
L 45.40625 75.984375 
L 54.390625 75.984375 
L 54.390625 0 
L 45.40625 0 
L 45.40625 8.203125 
Q 42.578125 3.328125 38.25 0.953125 
Q 33.9375 -1.421875 27.875 -1.421875 
Q 17.96875 -1.421875 11.734375 6.484375 
Q 5.515625 14.40625 5.515625 27.296875 
Q 5.515625 40.1875 11.734375 48.09375 
Q 17.96875 56 27.875 56 
Q 33.9375 56 38.25 53.625 
Q 42.578125 51.265625 45.40625 46.390625 
M 14.796875 27.296875 
Q 14.796875 17.390625 18.875 11.75 
Q 22.953125 6.109375 30.078125 6.109375 
Q 37.203125 6.109375 41.296875 11.75 
Q 45.40625 17.390625 45.40625 27.296875 
Q 45.40625 37.203125 41.296875 42.84375 
Q 37.203125 48.484375 30.078125 48.484375 
Q 22.953125 48.484375 18.875 42.84375 
Q 14.796875 37.203125 14.796875 27.296875 
" id="BitstreamVeraSans-Roman-64"/>
      <path d="M 18.3125 70.21875 
L 18.3125 54.6875 
L 36.8125 54.6875 
L 36.8125 47.703125 
L 18.3125 47.703125 
L 18.3125 18.015625 
Q 18.3125 11.328125 20.140625 9.421875 
Q 21.96875 7.515625 27.59375 7.515625 
L 36.8125 7.515625 
L 36.8125 0 
L 27.59375 0 
Q 17.1875 0 13.234375 3.875 
Q 9.28125 7.765625 9.28125 18.015625 
L 9.28125 47.703125 
L 2.6875 47.703125 
L 2.6875 54.6875 
L 9.28125 54.6875 
L 9.28125 70.21875 
z
" id="BitstreamVeraSans-Roman-74"/>
      <path d="M 8.5 21.578125 
L 8.5 54.6875 
L 17.484375 54.6875 
L 17.484375 21.921875 
Q 17.484375 14.15625 20.5 10.265625 
Q 23.53125 6.390625 29.59375 6.390625 
Q 36.859375 6.390625 41.078125 11.03125 
Q 45.3125 15.671875 45.3125 23.6875 
L 45.3125 54.6875 
L 54.296875 54.6875 
L 54.296875 0 
L 45.3125 0 
L 45.3125 8.40625 
Q 42.046875 3.421875 37.71875 1 
Q 33.40625 -1.421875 27.6875 -1.421875 
Q 18.265625 -1.421875 13.375 4.4375 
Q 8.5 10.296875 8.5 21.578125 
" id="BitstreamVeraSans-Roman-75"/>
      <path d="M 18.109375 8.203125 
L 18.109375 -20.796875 
L 9.078125 -20.796875 
L 9.078125 54.6875 
L 18.109375 54.6875 
L 18.109375 46.390625 
Q 20.953125 51.265625 25.265625 53.625 
Q 29.59375 56 35.59375 56 
Q 45.5625 56 51.78125 48.09375 
Q 58.015625 40.1875 58.015625 27.296875 
Q 58.015625 14.40625 51.78125 6.484375 
Q 45.5625 -1.421875 35.59375 -1.421875 
Q 29.59375 -1.421875 25.265625 0.953125 
Q 20.953125 3.328125 18.109375 8.203125 
M 48.6875 27.296875 
Q 48.6875 37.203125 44.609375 42.84375 
Q 40.53125 48.484375 33.40625 48.484375 
Q 26.265625 48.484375 22.1875 42.84375 
Q 18.109375 37.203125 18.109375 27.296875 
Q 18.109375 17.390625 22.1875 11.75 
Q 26.265625 6.109375 33.40625 6.109375 
Q 40.53125 6.109375 44.609375 11.75 
Q 48.6875 17.390625 48.6875 27.296875 
" id="BitstreamVeraSans-Roman-70"/>
     </defs>
     <g transform="translate(22.275 122.5471875)rotate(-90.0)scale(0.12 -0.12)">
      <use xlink:href="#BitstreamVeraSans-Roman-41"/>
      <use x="68.408203125" xlink:href="#BitstreamVeraSans-Roman-6d"/>
      <use x="165.8203125" xlink:href="#BitstreamVeraSans-Roman-70"/>
      <use x="229.296875" xlink:href="#BitstreamVeraSans-Roman-6c"/>
      <use x="257.080078125" xlink:href="#BitstreamVeraSans-Roman-69"/>
      <use x="284.86328125" xlink:href="#BitstreamVeraSans-Roman-74"/>
      <use x="324.072265625" xlink:href="#BitstreamVeraSans-Roman-75"/>
      <use x="387.451171875" xlink:href="#BitstreamVeraSans-Roman-64"/>
      <use x="450.927734375" xlink:href="#BitstreamVeraSans-Roman-65"/>
     </g>
    </g>
   </g>
  </g>
 </g>
 <defs>
  <clipPath id="p396c9a1b20">
   <rect height="157.68" width="492.48" x="62.91" y="12.96"/>
  </clipPath>
 </defs>
</svg>
